<?xml version="1.0" standalone="no"?>
<!DOCTYPE svg PUBLIC "-//W3C//DTD SVG 20010904//EN"
 "http://www.w3.org/TR/2001/REC-SVG-20010904/DTD/svg10.dtd">
<svg version="1.0" xmlns="http://www.w3.org/2000/svg"
 width="600.000000pt" height="600.000000pt" viewBox="0 0 600.000000 600.000000"
 preserveAspectRatio="xMidYMid meet">
<metadata>
Created by potrace 1.11, written by Peter Selinger 2001-2013
</metadata>
<g transform="translate(0.000000,600.000000) scale(0.100000,-0.100000)"
fill="#000000" stroke="none">
<path d="M2758 5985 c-2 -2 -39 -6 -83 -10 -44 -4 -87 -8 -95 -10 -8 -1 -44
-6 -80 -11 -36 -4 -67 -8 -70 -9 -3 -1 -32 -7 -65 -14 -465 -100 -876 -299
-1240 -600 -102 -85 -322 -302 -412 -406 -81 -93 -213 -271 -255 -341 -18 -31
-41 -70 -52 -88 -45 -75 -97 -177 -131 -256 -20 -47 -43 -99 -51 -117 -41 -91
-126 -379 -148 -498 -42 -239 -51 -345 -51 -610 0 -191 7 -350 19 -415 3 -14
7 -45 10 -70 3 -25 8 -56 11 -70 3 -14 8 -41 11 -60 3 -19 15 -71 26 -115 11
-44 21 -87 23 -95 11 -52 65 -204 113 -320 150 -364 346 -653 642 -951 146
-146 194 -190 292 -265 35 -27 65 -51 68 -54 13 -14 115 -83 210 -142 151 -94
363 -197 525 -255 133 -49 384 -116 470 -127 22 -3 63 -9 90 -15 28 -5 88 -13
135 -18 109 -10 555 -10 640 0 36 5 81 10 100 13 364 46 744 176 1067 365 91
54 267 172 291 196 7 7 16 13 20 13 4 0 21 13 38 28 17 15 55 47 85 72 78 65
286 273 358 359 332 392 570 883 646 1334 3 18 8 39 10 47 2 8 7 39 10 69 3
30 8 57 10 60 9 16 20 237 20 421 0 186 -7 312 -21 409 -12 85 -24 158 -29
181 -3 14 -9 43 -14 65 -72 348 -266 779 -476 1059 -22 30 -51 69 -65 87 -48
64 -229 265 -302 335 -437 420 -912 671 -1485 783 -54 11 -129 22 -168 26 -38
4 -81 9 -95 12 -27 5 -547 13 -552 8z"/>
</g>
</svg>
